<?xml version="1.0" encoding="utf-8"?>
<svg xmlns="http://www.w3.org/2000/svg"
	xmlns:xlink="http://www.w3.org/1999/xlink"
	width="111px" height="102px" viewBox="0 0 111 102">
<path fillRule="evenodd" d="M 69.88 88.72C 69.88 93.7 66.16 97.76 61.48 97.92 61.48 97.92 61.48 99.62 61.48 99.62 61.48 99.74 61.41 99.85 61.3 99.9 61.2 99.94 61.08 99.92 61 99.83 61 99.83 57.88 96.5 57.88 96.5 57.78 96.38 57.78 96.19 57.89 96.08 57.89 96.08 61 92.75 61 92.75 61.08 92.66 61.2 92.64 61.3 92.69 61.41 92.73 61.48 92.84 61.48 92.96 61.48 92.96 61.48 94.85 61.48 94.85 64.54 94.72 67 92.02 67 88.7 67 88.53 67.13 88.4 67.28 88.4 67.28 88.4 69.6 88.4 69.6 88.4 69.76 88.4 69.88 88.56 69.88 88.72Z" fill="rgb(103,107,113)"/><path fillRule="evenodd" d="M 94.79 68.89C 94.73 68.91 94.68 68.93 94.61 68.94 94.43 68.98 94.24 69 94.04 69 94.04 69 45.96 69 45.96 69 45.76 69 45.57 68.98 45.38 68.94 45.32 68.93 45.27 68.91 45.21 68.89 44.01 68.59 43 67.62 43 66.62 43 66.62 43 66.07 43 66.07 43 66.07 43 46.4 43 46.4 43 46.4 43 3.48 43 3.48 43 1.09 44.53-0 45.96-0 45.96-0 80.78-0 80.78-0 81.38-0 81.96 0.24 82.38 0.65 82.38 0.65 83.3 1.57 83.3 1.57 83.3 1.57 83.3 1.57 83.3 1.57 83.3 1.57 95.42 13.58 95.42 13.58 95.42 13.58 95.42 13.58 95.42 13.58 95.42 13.58 96.34 14.5 96.34 14.5 96.89 15.04 97 15.72 97 16.63 97 16.63 97 46.4 97 46.4 97 46.4 97 66.07 97 66.07 97 66.07 97 66.62 97 66.62 97 67.62 95.99 68.59 94.79 68.89ZM 82.6 4.24C 82.6 4.24 82.6 14.28 82.6 14.28 82.6 14.28 92.72 14.28 92.72 14.28 92.72 14.28 82.6 4.24 82.6 4.24ZM 94.6 16.63C 94.6 16.61 94.6 16.6 94.6 16.59 94.45 16.63 94.29 16.66 94.13 16.66 94.13 16.66 80.2 16.66 80.2 16.66 80.2 16.66 80.2 2.84 80.2 2.84 80.2 2.68 80.23 2.53 80.27 2.38 80.27 2.38 45.96 2.38 45.96 2.38 45.44 2.38 45.4 3.22 45.4 3.48 45.4 3.48 45.4 46.4 45.4 46.4 45.4 46.4 94.6 46.4 94.6 46.4 94.6 46.4 94.6 16.63 94.6 16.63ZM 94.6 48.78C 94.6 48.78 45.4 48.78 45.4 48.78 45.4 48.78 45.4 66.07 45.4 66.07 45.4 66.29 45.53 66.47 45.72 66.56 45.79 66.59 45.87 66.62 45.96 66.62 45.96 66.62 94.04 66.62 94.04 66.62 94.13 66.62 94.21 66.59 94.28 66.56 94.47 66.47 94.6 66.29 94.6 66.07 94.6 66.07 94.6 48.78 94.6 48.78ZM 79.92 57.51C 79.92 57.51 84.97 57.51 84.97 57.51 84.97 57.51 84.97 58.84 84.97 58.84 84.97 58.84 79.92 58.84 79.92 58.84 79.92 58.84 79.92 64.24 79.92 64.24 79.92 64.24 77.92 64.24 77.92 64.24 77.92 64.24 77.92 52.25 77.92 52.25 77.92 52.25 85.48 52.25 85.48 52.25 85.48 52.25 85.48 53.73 85.48 53.73 85.48 53.73 79.92 53.73 79.92 53.73 79.92 53.73 79.92 57.51 79.92 57.51ZM 73.93 62.2C 73.6 62.67 73.23 63.04 72.82 63.31 72.41 63.58 72.02 63.79 71.63 63.92 71.25 64.06 70.9 64.15 70.58 64.18 70.27 64.22 70.03 64.24 69.88 64.24 69.88 64.24 65.3 64.24 65.3 64.24 65.3 64.24 65.3 52.25 65.3 52.25 65.3 52.25 68.94 52.25 68.94 52.25 69.96 52.25 70.85 52.41 71.63 52.73 72.4 53.05 73.04 53.48 73.54 54.01 74.05 54.54 74.43 55.15 74.69 55.82 74.94 56.5 75.06 57.2 75.06 57.91 75.06 58.9 74.96 59.74 74.74 60.44 74.53 61.14 74.26 61.73 73.93 62.2ZM 72.81 56.39C 72.69 55.9 72.46 55.46 72.12 55.06 71.77 54.66 71.31 54.34 70.71 54.1 70.12 53.86 69.36 53.73 68.42 53.73 68.42 53.73 67.27 53.73 67.27 53.73 67.27 53.73 67.27 62.81 67.27 62.81 67.27 62.81 69.22 62.81 69.22 62.81 70.56 62.81 71.52 62.39 72.11 61.54 72.7 60.7 73 59.47 73 57.87 73 57.37 72.93 56.87 72.81 56.39ZM 61.81 58.86C 61.43 59.19 60.99 59.45 60.46 59.64 59.94 59.82 59.36 59.91 58.72 59.91 58.72 59.91 57.26 59.91 57.26 59.91 57.26 59.91 57.26 64.24 57.26 64.24 57.26 64.24 55.29 64.24 55.29 64.24 55.29 64.24 55.29 52.25 55.29 52.25 55.29 52.25 58.77 52.25 58.77 52.25 59.28 52.25 59.79 52.34 60.3 52.5 60.8 52.66 61.25 52.9 61.65 53.23 62.05 53.56 62.37 53.95 62.62 54.41 62.86 54.87 62.99 55.39 62.99 55.96 62.99 56.57 62.88 57.12 62.68 57.61 62.47 58.11 62.18 58.52 61.81 58.86ZM 61 55.29C 60.95 55.03 60.84 54.79 60.67 54.56 60.5 54.32 60.26 54.13 59.95 53.97 59.65 53.81 59.24 53.73 58.74 53.73 58.74 53.73 57.26 53.73 57.26 53.73 57.26 53.73 57.26 58.48 57.26 58.48 57.26 58.48 59.07 58.48 59.07 58.48 59.31 58.48 59.54 58.44 59.78 58.36 60.01 58.28 60.23 58.15 60.43 57.96 60.62 57.78 60.78 57.52 60.9 57.19 61.02 56.86 61.08 56.45 61.08 55.96 61.08 55.77 61.06 55.54 61 55.29ZM 54.14 9.83C 54.14 9.83 66.14 9.83 66.14 9.83 66.8 9.83 67.34 10.36 67.34 11.02 67.34 11.68 66.8 12.21 66.14 12.21 66.14 12.21 54.14 12.21 54.14 12.21 53.48 12.21 52.94 11.68 52.94 11.02 52.94 10.36 53.48 9.83 54.14 9.83ZM 54.14 19.35C 54.14 19.35 84.14 19.35 84.14 19.35 84.8 19.35 85.34 19.88 85.34 20.54 85.34 21.19 84.8 21.73 84.14 21.73 84.14 21.73 54.14 21.73 54.14 21.73 53.48 21.73 52.94 21.19 52.94 20.54 52.94 19.88 53.48 19.35 54.14 19.35ZM 54.14 28.86C 54.14 28.86 84.14 28.86 84.14 28.86 84.8 28.86 85.34 29.4 85.34 30.05 85.34 30.71 84.8 31.24 84.14 31.24 84.14 31.24 54.14 31.24 54.14 31.24 53.48 31.24 52.94 30.71 52.94 30.05 52.94 29.4 53.48 28.86 54.14 28.86ZM 54.14 38.38C 54.14 38.38 84.14 38.38 84.14 38.38 84.8 38.38 85.34 38.91 85.34 39.57 85.34 40.23 84.8 40.76 84.14 40.76 84.14 40.76 54.14 40.76 54.14 40.76 53.48 40.76 52.94 40.23 52.94 39.57 52.94 38.91 53.48 38.38 54.14 38.38Z" fill="rgb(103,107,113)"/><path fillRule="evenodd" d="M 45.35 98.07C 45.35 98.07 43.35 98.07 43.35 98.07 42.8 98.07 42.35 98.51 42.35 99.07 42.35 99.62 42.8 100.07 43.35 100.07 43.35 100.07 45.35 100.07 45.35 100.07 45.9 100.07 46.35 99.62 46.35 99.07 46.35 98.51 45.9 98.07 45.35 98.07 45.35 98.07 45.35 98.07 45.35 98.07ZM 37.35 98.07C 37.35 98.07 35.35 98.07 35.35 98.07 34.8 98.07 34.35 98.51 34.35 99.07 34.35 99.62 34.8 100.07 35.35 100.07 35.35 100.07 37.35 100.07 37.35 100.07 37.9 100.07 38.35 99.62 38.35 99.07 38.35 98.51 37.9 98.07 37.35 98.07 37.35 98.07 37.35 98.07 37.35 98.07ZM 29.35 98.07C 29.35 98.07 27.35 98.07 27.35 98.07 26.8 98.07 26.35 98.51 26.35 99.07 26.35 99.62 26.8 100.07 27.35 100.07 27.35 100.07 29.35 100.07 29.35 100.07 29.9 100.07 30.35 99.62 30.35 99.07 30.35 98.51 29.9 98.07 29.35 98.07 29.35 98.07 29.35 98.07 29.35 98.07ZM 21.35 98.07C 21.35 98.07 19.35 98.07 19.35 98.07 18.8 98.07 18.35 98.51 18.35 99.07 18.35 99.62 18.8 100.07 19.35 100.07 19.35 100.07 21.35 100.07 21.35 100.07 21.9 100.07 22.35 99.62 22.35 99.07 22.35 98.51 21.9 98.07 21.35 98.07 21.35 98.07 21.35 98.07 21.35 98.07ZM 13.35 98.07C 13.35 98.07 11.35 98.07 11.35 98.07 10.8 98.07 10.35 98.51 10.35 99.07 10.35 99.62 10.8 100.07 11.35 100.07 11.35 100.07 13.35 100.07 13.35 100.07 13.9 100.07 14.35 99.62 14.35 99.07 14.35 98.51 13.9 98.07 13.35 98.07 13.35 98.07 13.35 98.07 13.35 98.07ZM 5.35 98.07C 5.35 98.07 3.35 98.07 3.35 98.07 2.8 98.07 2.35 98.51 2.35 99.07 2.35 99.62 2.8 100.07 3.35 100.07 3.35 100.07 5.35 100.07 5.35 100.07 5.9 100.07 6.35 99.62 6.35 99.07 6.35 98.51 5.9 98.07 5.35 98.07 5.35 98.07 5.35 98.07 5.35 98.07ZM 1.62 94.88C 1.62 94.88 1.62 92.88 1.62 92.88 1.62 92.32 1.17 91.88 0.62 91.88 0.06 91.88-0.38 92.32-0.38 92.88-0.38 92.88-0.38 94.88-0.38 94.88-0.38 95.43 0.06 95.88 0.62 95.88 1.17 95.88 1.62 95.43 1.62 94.88 1.62 94.88 1.62 94.88 1.62 94.88ZM 1.62 86.88C 1.62 86.88 1.62 84.88 1.62 84.88 1.62 84.32 1.17 83.88 0.62 83.88 0.06 83.88-0.38 84.32-0.38 84.88-0.38 84.88-0.38 86.88-0.38 86.88-0.38 87.43 0.06 87.88 0.62 87.88 1.17 87.88 1.62 87.43 1.62 86.88 1.62 86.88 1.62 86.88 1.62 86.88ZM 1.62 78.88C 1.62 78.88 1.62 78.8 1.62 78.8 1.62 78.51 1.77 78.23 2.08 78.02 2.54 77.71 2.66 77.09 2.35 76.63 2.04 76.17 1.41 76.05 0.96 76.36 0.18 76.88-0.38 77.77-0.38 78.8-0.38 78.8-0.38 78.88-0.38 78.88-0.38 79.43 0.06 79.88 0.62 79.88 1.17 79.88 1.62 79.43 1.62 78.88 1.62 78.88 1.62 78.88 1.62 78.88ZM 7.44 77.77C 7.44 77.77 9.44 77.77 9.44 77.77 9.99 77.77 10.44 77.32 10.44 76.77 10.44 76.22 9.99 75.77 9.44 75.77 9.44 75.77 7.44 75.77 7.44 75.77 6.88 75.77 6.44 76.22 6.44 76.77 6.44 77.32 6.88 77.77 7.44 77.77 7.44 77.77 7.44 77.77 7.44 77.77ZM 15.44 77.77C 15.44 77.77 17.44 77.77 17.44 77.77 17.99 77.77 18.44 77.32 18.44 76.77 18.44 76.22 17.99 75.77 17.44 75.77 17.44 75.77 15.44 75.77 15.44 75.77 14.88 75.77 14.44 76.22 14.44 76.77 14.44 77.32 14.88 77.77 15.44 77.77 15.44 77.77 15.44 77.77 15.44 77.77ZM 23.44 77.77C 23.44 77.77 25.44 77.77 25.44 77.77 25.99 77.77 26.44 77.32 26.44 76.77 26.44 76.22 25.99 75.77 25.44 75.77 25.44 75.77 23.44 75.77 23.44 75.77 22.88 75.77 22.44 76.22 22.44 76.77 22.44 77.32 22.88 77.77 23.44 77.77 23.44 77.77 23.44 77.77 23.44 77.77ZM 31.44 77.77C 31.44 77.77 33.44 77.77 33.44 77.77 33.99 77.77 34.44 77.32 34.44 76.77 34.44 76.22 33.99 75.77 33.44 75.77 33.44 75.77 31.44 75.77 31.44 75.77 30.88 75.77 30.44 76.22 30.44 76.77 30.44 77.32 30.88 77.77 31.44 77.77 31.44 77.77 31.44 77.77 31.44 77.77ZM 39.44 77.77C 39.44 77.77 41.44 77.77 41.44 77.77 41.99 77.77 42.44 77.32 42.44 76.77 42.44 76.22 41.99 75.77 41.44 75.77 41.44 75.77 39.44 75.77 39.44 75.77 38.88 75.77 38.44 76.22 38.44 76.77 38.44 77.32 38.88 77.77 39.44 77.77 39.44 77.77 39.44 77.77 39.44 77.77ZM 47.44 77.77C 47.44 77.77 49.44 77.77 49.44 77.77 49.99 77.77 50.44 77.32 50.44 76.77 50.44 76.22 49.99 75.77 49.44 75.77 49.44 75.77 47.44 75.77 47.44 75.77 46.88 75.77 46.44 76.22 46.44 76.77 46.44 77.32 46.88 77.77 47.44 77.77 47.44 77.77 47.44 77.77 47.44 77.77ZM 51.25 80.88C 51.25 80.88 51.25 82.88 51.25 82.88 51.25 83.43 51.7 83.88 52.25 83.88 52.8 83.88 53.25 83.43 53.25 82.88 53.25 82.88 53.25 80.88 53.25 80.88 53.25 80.33 52.8 79.88 52.25 79.88 51.7 79.88 51.25 80.33 51.25 80.88 51.25 80.88 51.25 80.88 51.25 80.88ZM 51.25 88.88C 51.25 88.88 51.25 90.88 51.25 90.88 51.25 91.43 51.7 91.88 52.25 91.88 52.8 91.88 53.25 91.43 53.25 90.88 53.25 90.88 53.25 88.88 53.25 88.88 53.25 88.33 52.8 87.88 52.25 87.88 51.7 87.88 51.25 88.33 51.25 88.88 51.25 88.88 51.25 88.88 51.25 88.88ZM 51.25 96.88C 51.25 96.88 51.25 97.04 51.25 97.04 51.25 97.34 51.09 97.63 50.75 97.84 50.28 98.14 50.14 98.76 50.43 99.22 50.73 99.69 51.34 99.83 51.81 99.54 52.64 99.02 53.25 98.11 53.25 97.04 53.25 97.04 53.25 96.88 53.25 96.88 53.25 96.33 52.8 95.88 52.25 95.88 51.7 95.88 51.25 96.33 51.25 96.88 51.25 96.88 51.25 96.88 51.25 96.88Z" fill="rgb(79,79,79)"/><path fillRule="evenodd" d="M 93.67 102C 88.15 102 82.97 99.82 79.07 95.87 79.07 95.87 73.73 90.45 73.73 90.45 71.97 88.66 71 86.28 71 83.75 71 83.75 71 79.65 71 79.65 71 77.12 71.97 74.75 73.73 72.96 73.73 72.96 76.33 70.32 76.33 70.32 76.33 70.32 76.33 64.12 76.33 64.12 76.33 61.13 78.73 58.71 81.67 58.71 82.76 58.71 83.78 59.04 84.63 59.62 85.36 57.52 87.34 56 89.67 56 91.99 56 93.97 57.52 94.7 59.62 95.55 59.04 96.57 58.71 97.67 58.71 99.99 58.71 101.97 60.22 102.7 62.33 103.55 61.75 104.57 61.41 105.67 61.41 108.61 61.41 111 63.84 111 66.82 111 66.82 111 84.41 111 84.41 111 94.11 103.22 102 93.67 102Z" fill="rgb(103,107,113)"/><path fillRule="evenodd" d="M 76.33 74.15C 76.33 74.15 75.62 74.87 75.62 74.87 74.36 76.15 73.67 77.85 73.67 79.66 73.67 79.66 73.67 83.76 73.67 83.76 73.67 85.56 74.36 87.26 75.62 88.54 75.62 88.54 80.95 93.95 80.95 93.95 84.35 97.4 88.86 99.29 93.66 99.29 101.75 99.29 108.33 92.62 108.33 84.41 108.33 84.41 108.33 66.82 108.33 66.82 108.33 65.33 107.14 64.12 105.67 64.12 104.19 64.12 103 65.33 103 66.82 103 66.82 103 68.18 103 68.18 103 68.92 102.4 69.53 101.67 69.53 100.93 69.53 100.33 68.92 100.33 68.18 100.33 68.18 100.33 64.12 100.33 64.12 100.33 62.63 99.14 61.41 97.67 61.41 96.19 61.41 95 62.63 95 64.12 95 64.12 95 68.18 95 68.18 95 68.92 94.4 69.53 93.67 69.53 92.93 69.53 92.33 68.92 92.33 68.18 92.33 68.18 92.33 61.41 92.33 61.41 92.33 59.92 91.14 58.71 89.67 58.71 88.19 58.71 87 59.92 87 61.41 87 61.41 87 68.18 87 68.18 87 68.92 86.4 69.53 85.67 69.53 84.93 69.53 84.33 68.92 84.33 68.18 84.33 68.18 84.33 64.12 84.33 64.12 84.33 62.63 83.14 61.41 81.67 61.41 80.19 61.41 79 62.63 79 64.12 79 64.12 79 70.88 79 70.88 79 70.88 79 70.88 79 70.88 79 70.88 79 76.29 79 76.29 79 77.04 78.4 77.65 77.67 77.65 76.93 77.65 76.33 77.04 76.33 76.29 76.33 76.29 76.33 74.15 76.33 74.15Z" fill="rgb(255,255,255)"/></svg>