<svg xmlns="http://www.w3.org/2000/svg" viewBox="0 0 27 34"><defs><style>.cls-1{fill:none;stroke:#2d2d2d;stroke-linecap:round;stroke-linejoin:round;stroke-width:2}</style></defs><g id="Layer_2" data-name="Layer 2"><g id="Layer_2-2" data-name="Layer 2"><path class="cls-1" d="M20 26v5a2 2 0 0 1-2 2H3a2 2 0 0 1-2-2V9a2 2 0 0 1 2-2h4"/><path class="cls-1" d="M26 7v17a2 2 0 0 1-2 2H9a2 2 0 0 1-2-2V3a2 2 0 0 1 2-2h11z"/><path class="cls-1" d="M20 1v4a2 2 0 0 0 2 2h4M12 12h9M12 16h9M12 20h5"/></g></g></svg>
