<svg xmlns="http://www.w3.org/2000/svg" width="12.63" height="14" viewBox="0 0 12.63 14">
  <metadata><?xpacket begin="﻿" id="W5M0MpCehiHzreSzNTczkc9d"?>
<x:xmpmeta xmlns:x="adobe:ns:meta/" x:xmptk="Adobe XMP Core 5.6-c142 79.160924, 2017/07/13-01:06:39        ">
   <rdf:RDF xmlns:rdf="http://www.w3.org/1999/02/22-rdf-syntax-ns#">
      <rdf:Description rdf:about=""/>
   </rdf:RDF>
</x:xmpmeta>
                                                                                                    
                                                                                                    
                                                                                                    
                                                                                                    
                                                                                                    
                                                                                                    
                                                                                                    
                                                                                                    
                                                                                                    
                                                                                                    
                                                                                                    
                                                                                                    
                                                                                                    
                                                                                                    
                                                                                                    
                                                                                                    
                                                                                                    
                                                                                                    
                                                                                                    
                                                                                                    
                           
<?xpacket end="w"?></metadata>
<defs>
    <style>
      .cls-1 {
        fill: #27282d;
        fill-rule: evenodd;
      }
    </style>
  </defs>
  <path class="cls-1" d="M4874.58,1010.99l1.74-1.79a4.69,4.69,0,0,0-2.88-.99,4.862,4.862,0,0,0-4.65,5.9,4.807,4.807,0,0,0,3.68,3.82,4.675,4.675,0,0,0,4.49-1.51,0.966,0.966,0,0,1,.73-0.35h0.01a0.973,0.973,0,0,1,.73,1.59,6.563,6.563,0,0,1-4.99,2.34,6.9,6.9,0,0,1-.92-13.7,6.468,6.468,0,0,1,5.14,1.53l1.78-1.83v4.99h-4.86Z" transform="translate(-4866.81 -1006)"/>
</svg>
