<?xml version="1.0" encoding="UTF-8"?>
<svg width="107px" height="25px" viewBox="0 0 107 25" version="1.1" xmlns="http://www.w3.org/2000/svg" xmlns:xlink="http://www.w3.org/1999/xlink">
    <!-- Generator: sketchtool 48.2 (47327) - http://www.bohemiancoding.com/sketch -->
    <title>E7C524DE-ED0C-40A6-9B45-2B2935995783</title>
    <desc>Created with sketchtool.</desc>
    <defs></defs>
    <g id="1.My-Data-Flow-A" stroke="none" stroke-width="1" fill="none" fill-rule="evenodd" transform="translate(-373.000000, -38.000000)">
        <g id="Group-8" fill="#0D9570">
            <g id="Header">
                <g id="Logo" transform="translate(373.000000, 38.000000)">
                    <g id="Group-6">
                        <polygon id="Fill-1" points="14.0955136 0.234935797 19.9686737 14.9178359 25.8418337 0.234935797"></polygon>
                        <polygon id="Fill-2" points="0 0.234935797 9.3969621 23.7275759 16.4448011 23.7275759 7.04783902 0.234935797"></polygon>
                    </g>
                    <polygon id="Fill-3" points="36.6403304 19.4378249 32.9643204 9.63520983 28.9961087 9.63520983 34.6566943 23.7266599 38.6533276 23.7266599 44.3129737 9.63520983 40.3454666 9.63520983"></polygon>
                    <path d="M48.2589649,15.3247573 C48.4055355,13.9238804 49.3970013,12.3195897 51.7019652,12.3195897 C54.1527952,12.3195897 55.0855387,13.9821328 55.2029831,15.3247573 L48.2589649,15.3247573 Z M51.7019652,9.28576574 C47.4424914,9.28576574 44.4081976,12.5819605 44.4081976,16.666912 C44.4081976,21.1887567 47.6463749,24.0771845 51.9352098,24.0771845 C54.1234341,24.0771845 56.3403148,23.4051676 57.7414266,22.121735 L56.0781788,19.6709051 C55.1738569,20.5465706 53.5397354,21.0431256 52.3439164,21.0431256 C49.9513389,21.0431256 48.5511666,19.6128876 48.2880911,17.892327 L58.7620185,17.892327 L58.7620185,17.0164266 C58.7620185,12.4363295 55.9325478,9.28576574 51.7019652,9.28576574 Z" id="Fill-4"></path>
                    <path d="M64.3178672,11.5314438 L64.3178672,9.63518635 L60.612731,9.63518635 L60.612731,23.7266364 L64.3178672,23.7266364 L64.3178672,14.4201065 C64.9302224,13.5160194 66.5638741,12.8151112 67.7890542,12.8151112 C68.2271218,12.8151112 68.5475102,12.8449421 68.8105857,12.9031945 L68.8105857,9.28543689 C67.0599593,9.28543689 65.3384591,10.3060288 64.3178672,11.5314438" id="Fill-7"></path>
                    <path d="M73.1438616,3.71312246 C71.9475728,3.71312246 70.9556373,4.67546195 70.9556373,5.90087692 C70.9556373,7.12629189 71.9475728,8.11846226 73.1438616,8.11846226 C74.3695114,8.11846226 75.3607422,7.12629189 75.3607422,5.90087692 C75.3607422,4.67546195 74.3695114,3.71312246 73.1438616,3.71312246" id="Fill-9"></path>
                    <polygon id="Fill-11" points="71.3061384 23.7265894 75.0110398 23.7265894 75.0110398 9.63513937 71.3061384 9.63513937"></polygon>
                    <path d="M95.3300736,9.28543689 C93.1716802,9.28543689 91.3043141,10.5691043 90.486901,11.8236455 C89.9915205,10.2477764 88.648896,9.28543689 86.5778813,9.28543689 C84.4192531,9.28543689 82.5814829,10.6273567 81.968658,11.4440651 L81.968658,9.63518635 L78.2635218,9.63518635 L78.2635218,23.7266364 L81.968658,23.7266364 L81.968658,14.2159881 C82.5232305,13.4568274 83.60184,12.5821015 84.8855074,12.5821015 C86.403124,12.5821015 86.9865878,13.5160194 86.9865878,14.828813 L86.9865878,23.7266364 L90.7208503,23.7266364 L90.7208503,14.2159881 C91.2460617,13.4568274 92.324906,12.5821015 93.6376997,12.5821015 C95.1553163,12.5821015 95.7387801,13.5160194 95.7387801,14.828813 L95.7387801,23.7266364 L99.4730426,23.7266364 L99.4730426,13.5451456 C99.4730426,10.6564829 97.9265346,9.28543689 95.3300736,9.28543689" id="Fill-13"></path>
                    <path d="M104.623097,8.11843877 C105.848747,8.11843877 106.839978,7.1262684 106.839978,5.90085343 C106.839978,4.67543846 105.848747,3.71309897 104.623097,3.71309897 C103.426809,3.71309897 102.434873,4.67543846 102.434873,5.90085343 C102.434873,7.1262684 103.426809,8.11843877 104.623097,8.11843877" id="Fill-14"></path>
                    <polygon id="Fill-15" points="102.785233 23.7265894 106.490135 23.7265894 106.490135 9.63513937 102.785233 9.63513937"></polygon>
                </g>
            </g>
        </g>
    </g>
</svg>