<?xml version="1.0" encoding="utf-8"?>
<!-- Generator: Adobe Illustrator 19.0.0, SVG Export Plug-In . SVG Version: 6.00 Build 0)  -->
<svg version="1.1" id="Layer_1" xmlns="http://www.w3.org/2000/svg" xmlns:xlink="http://www.w3.org/1999/xlink" x="0px" y="0px"
	 viewBox="0 0 205.7 24" style="enable-background:new 0 0 205.7 24;" xml:space="preserve">
<style type="text/css">
	.st0{fill:#515151;}
	.st1{fill:#515050;}
</style>
<g id="XMLID_2_">
	<path id="XMLID_12_" class="st0" d="M2.5,1.3h4.8c3.5,0,5.8,1.2,5.8,4.6c0,3.3-2.4,4.9-5.8,4.9H4.5v6.2h-2V1.3z M7.1,9.2
		c2.8,0,4.1-1,4.1-3.2c0-2.3-1.4-3-4.1-3H4.5v6.3H7.1z"/>
	<path id="XMLID_15_" class="st0" d="M19.8,5.1c2.9,0,5.4,2.2,5.4,6.1c0,3.9-2.5,6.1-5.4,6.1c-2.9,0-5.4-2.2-5.4-6.1
		C14.4,7.4,17,5.1,19.8,5.1z M19.8,15.7c2,0,3.4-1.8,3.4-4.5c0-2.7-1.3-4.5-3.4-4.5c-2,0-3.4,1.8-3.4,4.5
		C16.4,13.9,17.8,15.7,19.8,15.7z"/>
	<path id="XMLID_18_" class="st0" d="M26.6,5.4h2l1.7,6.7c0.3,1.1,0.5,2.2,0.7,3.2h0.1c0.3-1.1,0.5-2.2,0.8-3.2l1.8-6.7h1.9l1.8,6.7
		c0.3,1.1,0.6,2.2,0.8,3.2h0.1c0.3-1.1,0.5-2.1,0.7-3.2l1.7-6.7h1.9l-3.1,11.7h-2.4l-1.7-6.3c-0.3-1.1-0.5-2.2-0.8-3.4h-0.1
		c-0.3,1.2-0.5,2.3-0.8,3.4l-1.6,6.2h-2.3L26.6,5.4z"/>
	<path id="XMLID_20_" class="st0" d="M49.2,5.1c3,0,4.7,2.1,4.7,5.5c0,0.4,0,0.8-0.1,1.1h-7.9c0.1,2.5,1.7,4.1,3.9,4.1
		c1.1,0,2-0.4,2.9-0.9l0.7,1.3c-1,0.6-2.3,1.2-3.8,1.2c-3.1,0-5.6-2.3-5.6-6.1S46.5,5.1,49.2,5.1z M52.1,10.4c0-2.4-1.1-3.7-2.9-3.7
		c-1.6,0-3.1,1.3-3.4,3.7H52.1z"/>
	<path id="XMLID_23_" class="st0" d="M56.5,5.4h1.6l0.2,2.1h0.1c0.8-1.5,2-2.4,3.3-2.4c0.5,0,0.9,0.1,1.2,0.2l-0.4,1.7
		c-0.4-0.1-0.6-0.2-1.1-0.2c-1,0-2.2,0.7-3,2.7v7.5h-2V5.4z"/>
	<path id="XMLID_25_" class="st0" d="M68.7,5.1c3,0,4.7,2.1,4.7,5.5c0,0.4,0,0.8-0.1,1.1h-7.9c0.1,2.5,1.7,4.1,3.9,4.1
		c1.1,0,2-0.4,2.9-0.9l0.7,1.3c-1,0.6-2.3,1.2-3.8,1.2c-3.1,0-5.6-2.3-5.6-6.1S66.1,5.1,68.7,5.1z M71.6,10.4c0-2.4-1.1-3.7-2.9-3.7
		c-1.6,0-3.1,1.3-3.4,3.7H71.6z"/>
	<path id="XMLID_29_" class="st0" d="M80.2,5.1c1.3,0,2.2,0.5,3.3,1.3l-0.1-2V0h2v17.1h-1.6l-0.2-1.4h-0.1c-0.9,0.9-2.2,1.7-3.5,1.7
		c-2.9,0-4.8-2.2-4.8-6.1C75.2,7.5,77.6,5.1,80.2,5.1z M80.4,15.7c1.1,0,2-0.5,3-1.6V8c-1-0.9-1.9-1.2-2.8-1.2
		c-1.9,0-3.4,1.8-3.4,4.5C77.2,14,78.4,15.7,80.4,15.7z"/>
	<path id="XMLID_32_" class="st0" d="M93.7,0h2v4.7l0,2.1c1.1-0.9,2.4-1.6,3.6-1.6c3,0,4.6,2.3,4.6,5.9c0,4-2.4,6.3-5,6.3
		c-1.1,0-2.3-0.5-3.3-1.4h-0.1l-0.2,1.2h-1.6V0z M98.5,15.7c1.9,0,3.3-1.8,3.3-4.6c0-2.6-0.9-4.3-3.1-4.3c-1,0-2,0.6-3.1,1.6v6.1
		C96.7,15.4,97.8,15.7,98.5,15.7z"/>
	<path id="XMLID_36_" class="st0" d="M106.8,20.5c1.3,0,2.2-1.1,2.6-2.5l0.3-0.9L105,5.4h2l2.4,6.5c0.4,1,0.8,2.2,1.1,3.3h0.1
		c0.3-1.1,0.7-2.3,1-3.3l2.1-6.5h1.9L111.2,18c-0.8,2.3-2,4.1-4.4,4.1c-0.5,0-1-0.1-1.4-0.2l0.4-1.6
		C106.1,20.4,106.5,20.5,106.8,20.5z"/>
</g>
<g id="_x30_d818048-156a-4394-9282-0d8cd9840052.psd">
	<g id="Logo-White">
		<g id="XMLID_129_">
			<path id="XMLID_130_" class="st1" d="M134.4,10.4c-0.4-0.3-0.8-0.6-1.3-0.8c-0.5-0.2-1-0.3-1.5-0.4c-1.7-0.2-5.3-0.6-6.4-1
				c-0.4-0.2-0.6-0.4-0.7-0.6c-0.1-0.2-0.2-0.5-0.2-0.8c0-0.4,0.1-0.8,0.3-1.1c0.2-0.3,0.5-0.5,0.9-0.7c0.4-0.2,0.8-0.3,1.2-0.4
				c0.4-0.1,0.9-0.1,1.3-0.1c1,0,1.8,0.1,2.4,0.4c0.6,0.3,1.1,0.6,1.4,1c0.3,0.4,0.5,0.9,0.5,1.4h2.8c-0.1-0.7-0.2-1.4-0.5-2
				c-0.3-0.6-0.8-1.1-1.3-1.6c-0.6-0.4-1.3-0.8-2.2-1c-0.9-0.2-1.9-0.4-3.1-0.4c-1.4,0-2.5,0.2-3.5,0.6c-1,0.4-1.8,0.9-2.3,1.6
				c-0.5,0.7-0.8,1.5-0.8,2.5c0,0.6,0.1,1.1,0.3,1.5c0.2,0.4,0.5,0.8,0.9,1.2c0.4,0.3,0.8,0.6,1.3,0.8c0.5,0.2,1,0.3,1.5,0.4
				c1.6,0.2,3.3,0.4,4.9,0.7c0.7,0.1,1.2,0.2,1.5,0.4c0.4,0.2,0.6,0.4,0.7,0.6c0.1,0.2,0.2,0.5,0.2,0.8c0,0.4-0.1,0.9-0.4,1.2
				c-0.2,0.3-0.5,0.5-0.9,0.7c-0.9,0.4-2.2,0.5-3.1,0.5c-0.9,0-1.6-0.1-2.2-0.3c-0.6-0.2-1.1-0.4-1.4-0.7c-0.3-0.3-0.6-0.6-0.7-0.9
				c-0.1-0.3-0.2-0.7-0.2-1H121c0.1,0.8,0.3,1.6,0.6,2.2c0.3,0.6,0.7,1.1,1.2,1.5c0.5,0.4,1.1,0.7,1.7,0.9c0.6,0.2,1.3,0.4,1.9,0.5
				c0.7,0.1,1.4,0.1,2,0.1c2.1,0,4.9-0.4,6.3-2.2c0.5-0.7,0.8-1.6,0.8-2.6c0-0.6-0.1-1.1-0.3-1.5C135,11.1,134.7,10.7,134.4,10.4z
				 M162.4,17.9h2.4v-15h-2.4V17.9z M200.5,14.4c-1,0-1.7,0.8-1.7,1.7c0,1,0.8,1.7,1.7,1.7s1.7-0.8,1.7-1.7
				C202.3,15.2,201.5,14.4,200.5,14.4z M144,4.7c2.1,0,3.9,1.3,4.7,3h2.5c-1-3.1-3.8-5.5-7.2-5.5c-4.2,0-7.6,3.5-7.6,7.8
				c0,4.3,3.4,7.8,7.6,7.8c3.4,0,6.3-2.3,7.2-5.4h-2.5c-0.8,1.9-2.6,3-4.7,3c-2.9,0-5.2-2.4-5.2-5.4C138.8,7.1,141.1,4.7,144,4.7z
				 M190.7,2.3c-4.2,0-7.6,3.5-7.6,7.8c0,4.3,3.4,7.8,7.6,7.8c3.4,0,6.3-2.3,7.2-5.4h-2.5c-0.8,1.7-2.6,3-4.7,3
				c-2.6,0-4.7-2-5.1-4.4h12.7c0-0.3,0.1-0.7,0.1-1C198.3,5.8,194.9,2.3,190.7,2.3z M185.7,8.7c0.6-2.3,2.6-3.9,5-3.9
				c2.4,0,4.4,1.6,5,3.9H185.7z M180.6,2.8L180.6,2.8l-4.1,10.9l-2.3-6l0,0c-1.2-2.9-4-4.9-7.5-4.9v2.4c2.6,0,4.8,1.7,5.5,4l0,0
				l3.3,8.7h2l5.6-15.1H180.6z M152.5,10.8L152.5,10.8l0,7.1h2.4v-6.8h0c0-3.1,2.4-5.7,5.4-5.7c0.1,0,0.2,0,0.2,0V2.8
				c-0.1,0-0.2,0-0.2,0C156.1,2.8,152.7,6.4,152.5,10.8z"/>
		</g>
	</g>
</g>
</svg>
