<svg xmlns="http://www.w3.org/2000/svg" width="24" height="96" viewBox="0 0 24 96" xmlns:xlink="http://www.w3.org/1999/xlink">
  <defs>
    <circle id="a" cx="11" cy="11" r="10.5"/>
    <circle id="b" cx="12" cy="60" r="10.5"/>
  </defs>
  <g fill="none" fill-rule="evenodd">
    <g transform="translate(1 73)">
      <use fill="#FFFFFF" xlink:href="#a"/>
      <circle cx="11" cy="11" r="11.25" stroke="#000000" stroke-width="1.5"/>
      <circle cx="11" cy="11" r="6.5" fill="#000000"/>
    </g>
    <use fill="#FFFFFF" xlink:href="#b"/>
    <circle cx="12" cy="60" r="11.25" stroke="#000000" stroke-width="1.5"/>
    <path fill="#FFFFFF" d="M12,46.5 C6.20101013,46.5 1.5,41.7989899 1.5,36 C1.5,30.2010101 6.20101013,25.5 12,25.5 C17.7989899,25.5 22.5,30.2010101 22.5,36 C22.5,41.7989899 17.7989899,46.5 12,46.5 Z M12,42.5 C15.5898509,42.5 18.5,39.5898509 18.5,36 C18.5,32.4101491 15.5898509,29.5 12,29.5 C8.41014913,29.5 5.5,32.4101491 5.5,36 C5.5,39.5898509 8.41014913,42.5 12,42.5 Z"/>
    <circle cx="12" cy="12" r="10.5" fill="#FFFFFF"/>
  </g>
</svg>
