<svg xmlns="http://www.w3.org/2000/svg" width="14" height="56" viewBox="0 0 14 56" xmlns:xlink="http://www.w3.org/1999/xlink">
  <defs>
    <circle id="a" cx="6" cy="6" r="5.5"/>
    <circle id="b" cx="7" cy="35" r="5.5"/>
  </defs>
  <g fill="none" fill-rule="evenodd">
    <g transform="translate(1 43)">
      <use fill="#FFFFFF" xlink:href="#a"/>
      <circle cx="6" cy="6" r="6.25" stroke="#000000" stroke-width="1.5"/>
      <circle cx="6" cy="6" r="3" fill="#000000"/>
    </g>
    <path fill="#FFFFFF" d="M7,26.5 C3.96243388,26.5 1.5,24.0375661 1.5,21 C1.5,17.9624339 3.96243388,15.5 7,15.5 C10.0375661,15.5 12.5,17.9624339 12.5,21 C12.5,24.0375661 10.0375661,26.5 7,26.5 Z M7,24 C8.65685425,24 10,22.6568542 10,21 C10,19.3431458 8.65685425,18 7,18 C5.34314575,18 4,19.3431458 4,21 C4,22.6568542 5.34314575,24 7,24 Z"/>
    <circle cx="7" cy="7" r="5.5" fill="#FFFFFF"/>
    <use fill="#FFFFFF" xlink:href="#b"/>
    <circle cx="7" cy="35" r="6.25" stroke="#000000" stroke-width="1.5"/>
  </g>
</svg>
