<?xml version="1.0" encoding="utf-8"?>
<svg xmlns="http://www.w3.org/2000/svg"
	xmlns:xlink="http://www.w3.org/1999/xlink"
	width="108px" height="108px">
<path class="actioncolor" fillRule="evenodd" d="M 54 108C 24.18 108-0 83.82-0 54-0 24.18 24.18-0 54-0 83.82-0 108 24.18 108 54 108 83.82 83.82 108 54 108ZM 71 51C 71 51 71 31 71 31 71 31 37 31 37 31 37 31 37.16 50.76 37.16 50.76 37.16 50.76 24.48 50.76 24.48 50.76 24.48 50.76 24.4 50.76 24.4 50.76 24.4 50.76 54 78.71 54 78.71 54 78.71 83 51 83 51 83 51 83.34 50.76 83.34 50.76 83.34 50.76 71 51 71 51Z" /><path class="textcolor" fillRule="evenodd" d="M 83.34 50.76C 83.34 50.76 71 51 71 51 71 51 71 31 71 31 71 31 37 31 37 31 37 31 37.16 50.76 37.16 50.76 37.16 50.76 24.48 50.76 24.48 50.76 24.48 50.76 24.4 50.76 24.4 50.76 24.4 50.76 54 78.71 54 78.71 54 78.71 83 51 83 51 83 51 83.34 50.76 83.34 50.76Z" opacity="0.80"/></svg>
