<?xml version="1.0" encoding="utf-8"?>
<svg xmlns="http://www.w3.org/2000/svg" xmlns:xlink="http://www.w3.org/1999/xlink" width="23px" height="24px" viewBox="0 0 23 24">
  <path fillRule="evenodd" d="M 22.91 12.42C 22.91 12.42 15.84 20.41 15.84 20.41 15.79 20.46 15.73 20.49 15.66 20.5 12.22 20.58 10.51 22.83 10.49 22.86 10.44 22.92 10.37 22.96 10.3 22.97 10.29 22.97 10.29 22.97 10.28 22.97 10.21 22.97 10.14 22.93 10.09 22.88 10.09 22.88 7.18 19.58 7.18 19.58 7.12 19.52 7.09 19.43 7.1 19.35 7.1 19.26 7.14 19.18 7.19 19.13 7.21 19.11 9.21 17.16 9.28 13.29 9.28 13.21 9.31 13.13 9.36 13.07 9.36 13.07 16.42 5.08 16.42 5.08 16.53 4.97 16.71 4.97 16.81 5.08 16.81 5.08 22.91 11.98 22.91 11.98 23.01 12.1 23.01 12.3 22.91 12.42ZM 16.62 5.74C 16.62 5.74 9.82 13.42 9.82 13.42 9.73 16.77 8.31 18.73 7.76 19.37 7.76 19.37 10.28 22.22 10.28 22.22 10.84 21.59 12.57 19.99 15.53 19.88 15.53 19.88 22.33 12.2 22.33 12.2 22.33 12.2 16.62 5.74 16.62 5.74Z" fill="rgb(79,79,79)"/><path fillRule="evenodd" d="M 8.41 24C 8.39 24 8.36 23.99 8.33 23.98 8.33 23.98 5.18 22.87 5.18 22.87 5.09 22.84 5.02 22.76 5 22.65 4.98 22.55 5 22.44 5.07 22.36 5.07 22.36 7.48 19.63 7.48 19.63 7.48 19.63 7.87 20.07 7.87 20.07 7.87 20.07 5.78 22.44 5.78 22.44 5.78 22.44 7.87 20.04 7.87 20.04 7.87 20.04 9.55 21.97 9.55 21.97 9.55 21.97 9.94 22.4 9.94 22.4 9.94 22.4 8.61 23.91 8.61 23.91 8.56 23.97 8.49 24 8.41 24Z" fill="rgb(228,29,37)"/><path fillRule="evenodd" d="M 9.38 1.6C 7.23-0.54 3.75-0.54 1.61 1.6-0.53 3.75-0.53 7.24 1.61 9.39 2.68 10.46 4.09 11 5.49 11 6.9 11 8.31 10.46 9.38 9.39 11.52 7.24 11.52 3.75 9.38 1.6ZM 1.91 1.9C 2.9 0.91 4.19 0.42 5.49 0.42 6.72 0.42 7.95 0.87 8.92 1.76 8.92 1.76 1.77 8.93 1.77 8.93-0.06 6.94-0.02 3.83 1.91 1.9ZM 9.08 9.09C 7.15 11.02 4.05 11.06 2.06 9.23 2.06 9.23 9.22 2.06 9.22 2.06 11.05 4.05 11 7.16 9.08 9.09Z" fill="rgb(228,29,37)"/>
</svg>