<?xml version="1.0" encoding="utf-8"?>
<svg xmlns="http://www.w3.org/2000/svg" xmlns:xlink="http://www.w3.org/1999/xlink" width="47px" height="52px" viewBox="0 0 47 52">
  <path fillRule="evenodd" d="M 46.79 26.4C 46.79 26.4 30.77 44.05 30.77 44.05 30.66 44.18 30.51 44.25 30.35 44.25 22.56 44.43 18.68 49.42 18.64 49.47 18.53 49.62 18.37 49.71 18.19 49.71 18.18 49.71 18.18 49.72 18.17 49.72 18 49.72 17.85 49.64 17.73 49.51 17.73 49.51 11.12 42.23 11.12 42.23 11 42.1 10.93 41.91 10.94 41.72 10.95 41.53 11.03 41.35 11.16 41.22 11.21 41.18 15.73 36.87 15.89 28.32 15.9 28.14 15.96 27.97 16.07 27.85 16.07 27.85 32.09 10.19 32.09 10.19 32.32 9.93 32.73 9.93 32.97 10.19 32.97 10.19 46.79 25.43 46.79 25.43 47.03 25.7 47.03 26.13 46.79 26.4ZM 32.53 11.63C 32.53 11.63 17.12 28.62 17.12 28.62 16.91 36.02 13.7 40.35 12.45 41.76 12.45 41.76 18.16 48.05 18.16 48.05 19.44 46.67 23.36 43.13 30.07 42.9 30.07 42.9 45.48 25.91 45.48 25.91 45.48 25.91 32.53 11.63 32.53 11.63Z" fill="rgb(79,79,79)"/><path fillRule="evenodd" d="M 13.93 52C 13.87 52 13.81 51.99 13.74 51.96 13.74 51.96 6.6 49.51 6.6 49.51 6.4 49.44 6.24 49.25 6.18 49.02 6.13 48.79 6.19 48.54 6.35 48.37 6.35 48.37 11.82 42.34 11.82 42.34 11.82 42.34 12.7 43.31 12.7 43.31 12.7 43.31 7.95 48.54 7.95 48.54 7.95 48.54 12.7 43.25 12.7 43.25 12.7 43.25 16.51 47.51 16.51 47.51 16.51 47.51 17.38 48.47 17.38 48.47 17.38 48.47 14.37 51.8 14.37 51.8 14.25 51.93 14.09 52 13.93 52Z" fill="rgb(228,29,37)"/><path fillRule="evenodd" d="M 19.42 3.32C 14.98-1.12 7.76-1.12 3.31 3.32-1.13 7.76-1.13 14.98 3.31 19.42 5.53 21.64 8.45 22.75 11.37 22.75 14.29 22.75 17.2 21.64 19.42 19.42 23.86 14.98 23.86 7.76 19.42 3.32ZM 3.93 3.94C 5.98 1.89 8.68 0.86 11.37 0.86 13.92 0.86 16.47 1.8 18.48 3.64 18.48 3.64 3.64 18.47 3.64 18.47-0.15 14.36-0.06 7.93 3.93 3.94ZM 18.8 18.8C 14.81 22.79 8.38 22.88 4.26 19.09 4.26 19.09 19.1 4.26 19.1 4.26 22.89 8.38 22.8 14.81 18.8 18.8Z" fill="rgb(228,29,37)"/>
</svg>