<?xml version="1.0" encoding="utf-8"?>
<!-- Generator: Adobe Illustrator 22.1.0, SVG Export Plug-In . SVG Version: 6.00 Build 0)  -->
<svg version="1.1" id="Layer_1" xmlns="http://www.w3.org/2000/svg" xmlns:xlink="http://www.w3.org/1999/xlink" x="0px" y="0px" width="23px" height="27px"
	 viewBox="0 0 23 27" style="enable-background:new 0 0 23 27;" xml:space="preserve">
<style type="text/css">
	.st0{fill:#4F4F4F;}
</style>
<path class="st0" d="M21,26c0.5,0,1-0.5,1-1V2c0-0.5-0.5-1-1-1H2C1.5,1,1,1.5,1,2v23c0,0.5,0.5,1,1,1H21 M21,27H2c-1.1,0-2-0.9-2-2
	V2c0-1.1,0.9-2,2-2h19c1.1,0,2,0.9,2,2v23C23,26.1,22.1,27,21,27L21,27z"/>
<path class="st0" d="M16,10.5L11.5,15L7,10.5l0.7-0.7L11,13V4h1v9l3.3-3.2L16,10.5z"/>
<rect x="3" y="22" class="st0" width="1" height="1"/>
<polygon class="st0" points="7,21 7,22 10,22 10,23 6,23 6,21 "/>
<polygon class="st0" points="10,20 9,20 9,19 6,19 6,18 10,18 "/>
<rect x="7" y="20" class="st0" width="2" height="1"/>
<rect x="11" y="18" class="st0" width="1" height="5"/>
<rect x="16" y="19" class="st0" width="1" height="2"/>
<polygon class="st0" points="14,21 15,21 16,21 16,22 15,22 14,22 14,23 13,23 13,19 13,18 14,18 16,18 16,19 14,19 "/>
</svg>
