<?xml version="1.0" encoding="utf-8"?>
<svg xmlns="http://www.w3.org/2000/svg" xmlns:xlink="http://www.w3.org/1999/xlink" width="23px" height="27px" viewBox="0 0 23 27" fill="rgb(79,79,79)">
  <path fillRule="evenodd" d="M 21 26C 21.55 26 22 25.55 22 25 22 25 22 2 22 2 22 1.45 21.55 1 21 1 21 1 2 1 2 1 1.45 1 1 1.45 1 2 1 2 1 25 1 25 1 25.55 1.45 26 2 26 2 26 21 26 21 26M 21 27C 21 27 2 27 2 27 0.9 27 0 26.1 0 25 0 25 0 2 0 2 0 0.9 0.9-0 2-0 2-0 21-0 21-0 22.1-0 23 0.9 23 2 23 2 23 25 23 25 23 26.1 22.1 27 21 27 21 27 21 27 21 27Z"/><path fillRule="evenodd" d="M 15.99 10.53C 15.99 10.53 11.5 15 11.5 15 11.5 15 7 10.53 7 10.53 7 10.53 7.73 9.8 7.73 9.8 7.73 9.8 10.98 13.04 10.98 13.04 10.98 13.04 10.98 4 10.98 4 10.98 4 12.01 4 12.01 4 12.01 4 12.01 13.04 12.01 13.04 12.01 13.04 15.26 9.8 15.26 9.8 15.26 9.8 15.99 10.53 15.99 10.53Z"/><path fillRule="evenodd" d="M 19 20C 19 20 19 21 19 21 19 21 17 21 17 21 17 21 17 23 17 23 17 23 16 23 16 23 16 23 16 21 16 21 16 21 16 20 16 20 16 20 16 19 16 19 16 19 16 18 16 18 16 18 17 18 17 18 17 18 19 18 19 18 19 18 19 19 19 19 19 19 17 19 17 19 17 19 17 20 17 20 17 20 19 20 19 20ZM 14 19C 14 19 15 19 15 19 15 19 15 22 15 22 15 22 14 22 14 22 14 22 14 19 14 19ZM 12 22C 12 22 14 22 14 22 14 22 14 23 14 23 14 23 12 23 12 23 12 23 11 23 11 23 11 23 11 22 11 22 11 22 11 18 11 18 11 18 12 18 12 18 12 18 14 18 14 18 14 18 14 19 14 19 14 19 12 19 12 19 12 19 12 22 12 22ZM 9 19C 9 19 10 19 10 19 10 19 10 21 10 21 10 21 9 21 9 21 9 21 9 19 9 19ZM 7 21C 7 21 8 21 8 21 8 21 9 21 9 21 9 21 9 22 9 22 9 22 8 22 8 22 8 22 7 22 7 22 7 22 7 23 7 23 7 23 6 23 6 23 6 23 6 19 6 19 6 19 6 18 6 18 6 18 7 18 7 18 7 18 9 18 9 18 9 18 9 19 9 19 9 19 7 19 7 19 7 19 7 21 7 21ZM 3 22C 3 22 4 22 4 22 4 22 4 23 4 23 4 23 3 23 3 23 3 23 3 22 3 22Z"/>
</svg>