<?xml version="1.0" encoding="utf-8"?>
<svg xmlns="http://www.w3.org/2000/svg"
	xmlns:xlink="http://www.w3.org/1999/xlink"
	width="25px" height="24px" viewBox="0 0 25 24">
<path fillRule="evenodd" d="M 24.9 9.37C 24.9 9.37 15.08 19.46 15.08 19.46 15.01 19.53 14.92 19.57 14.82 19.57 10.04 19.67 7.66 22.53 7.64 22.55 7.57 22.64 7.47 22.69 7.37 22.69 7.36 22.69 7.36 22.69 7.35 22.69 7.25 22.69 7.15 22.65 7.08 22.58 7.08 22.58 3.03 18.42 3.03 18.42 2.96 18.34 2.92 18.23 2.92 18.12 2.93 18.01 2.97 17.91 3.06 17.84 3.08 17.82 5.86 15.35 5.96 10.47 5.96 10.37 6 10.27 6.07 10.2 6.07 10.2 15.89 0.11 15.89 0.11 16.03-0.04 16.28-0.04 16.42 0.11 16.42 0.11 24.9 8.82 24.9 8.82 25.05 8.97 25.05 9.22 24.9 9.37ZM 6.71 10.64C 6.58 14.87 4.61 17.34 3.84 18.15 3.84 18.15 7.34 21.75 7.34 21.75 8.13 20.96 10.53 18.93 14.65 18.8 14.65 18.8 15.54 17.89 15.54 17.89 15.54 17.89 7.6 9.73 7.6 9.73 7.6 9.73 6.71 10.64 6.71 10.64ZM 8.13 9.18C 8.13 9.18 16.07 17.34 16.07 17.34 16.07 17.34 17.23 16.15 17.23 16.15 17.23 16.15 9.29 7.99 9.29 7.99 9.29 7.99 8.13 9.18 8.13 9.18ZM 9.82 7.44C 9.82 7.44 17.76 15.6 17.76 15.6 17.76 15.6 18.91 14.42 18.91 14.42 18.91 14.42 10.98 6.26 10.98 6.26 10.98 6.26 9.82 7.44 9.82 7.44ZM 16.15 0.93C 16.15 0.93 11.51 5.71 11.51 5.71 11.51 5.71 19.45 13.86 19.45 13.86 19.45 13.86 24.09 9.09 24.09 9.09 24.09 9.09 16.15 0.93 16.15 0.93Z" fill="rgb(79,79,79)"/><path fillRule="evenodd" d="M 4.75 24C 4.71 24 4.68 23.99 4.64 23.98 4.64 23.98 0.26 22.58 0.26 22.58 0.13 22.54 0.04 22.43 0 22.3-0.03 22.16 0.01 22.03 0.1 21.93 0.1 21.93 3.46 18.48 3.46 18.48 3.46 18.48 4 19.03 4 19.03 4 19.03 1.09 22.02 1.09 22.02 1.09 22.02 4 19 4 19 4 19 6.33 21.43 6.33 21.43 6.33 21.43 6.87 21.98 6.87 21.98 6.87 21.98 5.02 23.88 5.02 23.88 4.95 23.96 4.85 24 4.75 24Z" fill="rgb(255,221,0)"/></svg>