<?xml version="1.0" encoding="utf-8"?>
<svg xmlns="http://www.w3.org/2000/svg" xmlns:xlink="http://www.w3.org/1999/xlink" width="22px" height="23px" viewBox="0 0 22 23">
  <path fillRule="evenodd" d="M 21.29 22.05C 21.02 22.32 20.58 22.32 20.31 22.05 20.31 22.05 14.81 16.57 14.81 16.57 13.28 17.81 11.32 18.56 9.19 18.56 4.26 18.56 0.27 14.57 0.27 9.66 0.27 4.74 4.26 0.75 9.19 0.75 14.13 0.75 18.12 4.74 18.12 9.66 18.12 11.96 17.24 14.04 15.81 15.62 15.81 15.62 21.29 21.09 21.29 21.09 21.55 21.35 21.55 21.79 21.29 22.05ZM 16.75 9.66C 16.75 5.5 13.37 2.12 9.19 2.12 5.02 2.12 1.64 5.5 1.64 9.66 1.64 13.82 5.02 17.19 9.19 17.19 13.37 17.19 16.75 13.82 16.75 9.66ZM 12.55 10.44C 12.55 10.44 9.9 10.44 9.9 10.44 9.9 10.44 9.9 13.13 9.9 13.13 9.9 13.5 9.6 13.8 9.24 13.8 8.87 13.8 8.57 13.5 8.57 13.13 8.57 13.13 8.57 10.44 8.57 10.44 8.57 10.44 5.92 10.44 5.92 10.44 5.56 10.44 5.26 9.96 5.26 9.59 5.26 9.22 5.56 9.09 5.92 9.09 5.92 9.09 8.57 9.09 8.57 9.09 8.57 9.09 8.57 6.4 8.57 6.4 8.57 6.03 8.87 5.73 9.24 5.73 9.6 5.73 9.9 6.03 9.9 6.4 9.9 6.4 9.9 9.09 9.9 9.09 9.9 9.09 12.55 9.09 12.55 9.09 12.91 9.09 13.21 9.4 13.21 9.77 13.21 10.14 12.91 10.44 12.55 10.44Z" fill="rgb(79,79,79)" opacity="0.80"/>
</svg>