<?xml version="1.0" encoding="utf-8"?>
<svg xmlns="http://www.w3.org/2000/svg"
	xmlns:xlink="http://www.w3.org/1999/xlink"
	width="22px" height="23px" viewBox="0 0 22 23">
<path fillRule="evenodd" d="M 21.29 22.05C 21.02 22.32 20.59 22.32 20.32 22.05 20.32 22.05 14.82 16.57 14.82 16.57 13.28 17.81 11.33 18.56 9.2 18.56 4.27 18.56 0.27 14.57 0.27 9.66 0.27 4.74 4.27 0.75 9.2 0.75 14.13 0.75 18.13 4.74 18.13 9.66 18.13 11.96 17.25 14.04 15.81 15.62 15.81 15.62 21.29 21.09 21.29 21.09 21.56 21.35 21.56 21.79 21.29 22.05ZM 16.75 9.66C 16.75 5.5 13.37 2.12 9.2 2.12 5.02 2.12 1.64 5.5 1.64 9.66 1.64 13.82 5.02 17.19 9.2 17.19 13.37 17.19 16.75 13.82 16.75 9.66ZM 9.74 10.24C 9.74 10.24 6.26 10.24 6.26 10.24 5.9 10.24 5.26 9.96 5.26 9.59 5.26 9.22 5.9 9.36 6.26 9.36 6.26 9.36 9.74 9.36 9.74 9.36M 9.74 9.36C 9.74 9.36 12.34 9.36 12.34 9.36 12.71 9.36 13.22 9.4 13.22 9.77 13.22 10.14 12.71 10.24 12.34 10.24 12.34 10.24 9.74 10.24 9.74 10.24" fill="rgb(79,79,79)" opacity="0.80"/></svg>